<svg id="visual" viewBox="0 0 450 900" width="450" height="900" xmlns="http://www.w3.org/2000/svg" xmlns:xlink="http://www.w3.org/1999/xlink" version="1.1"><rect x="0" y="0" width="450" height="900" fill="#001220"></rect><path d="M111 900L112.3 893.2C113.7 886.3 116.3 872.7 116 859C115.7 845.3 112.3 831.7 111.7 818C111 804.3 113 790.7 113.5 777C114 763.3 113 749.7 114.2 736C115.3 722.3 118.7 708.7 117.8 695.2C117 681.7 112 668.3 109.5 654.8C107 641.3 107 627.7 108.7 614C110.3 600.3 113.7 586.7 116 573C118.3 559.3 119.7 545.7 118.8 532C118 518.3 115 504.7 115 491C115 477.3 118 463.7 119.2 450C120.3 436.3 119.7 422.7 118.3 409C117 395.3 115 381.7 114 368C113 354.3 113 340.7 112.2 327C111.3 313.3 109.7 299.7 110.5 286C111.3 272.3 114.7 258.7 113.7 245.2C112.7 231.7 107.3 218.3 104.7 204.8C102 191.3 102 177.7 102.2 164C102.3 150.3 102.7 136.7 103 123C103.3 109.3 103.7 95.7 103.8 82C104 68.3 104 54.7 103.7 41C103.3 27.3 102.7 13.7 102.3 6.8L102 0L450 0L450 6.8C450 13.7 450 27.3 450 41C450 54.7 450 68.3 450 82C450 95.7 450 109.3 450 123C450 136.7 450 150.3 450 164C450 177.7 450 191.3 450 204.8C450 218.3 450 231.7 450 245.2C450 258.7 450 272.3 450 286C450 299.7 450 313.3 450 327C450 340.7 450 354.3 450 368C450 381.7 450 395.3 450 409C450 422.7 450 436.3 450 450C450 463.7 450 477.3 450 491C450 504.7 450 518.3 450 532C450 545.7 450 559.3 450 573C450 586.7 450 600.3 450 614C450 627.7 450 641.3 450 654.8C450 668.3 450 681.7 450 695.2C450 708.7 450 722.3 450 736C450 749.7 450 763.3 450 777C450 790.7 450 804.3 450 818C450 831.7 450 845.3 450 859C450 872.7 450 886.3 450 893.2L450 900Z" fill="#050c17"></path><path d="M139 900L137.8 893.2C136.7 886.3 134.3 872.7 134.8 859C135.3 845.3 138.7 831.7 139.7 818C140.7 804.3 139.3 790.7 137.2 777C135 763.3 132 749.7 133.3 736C134.7 722.3 140.3 708.7 141 695.2C141.7 681.7 137.3 668.3 137.8 654.8C138.3 641.3 143.7 627.7 144 614C144.3 600.3 139.7 586.7 137.5 573C135.3 559.3 135.7 545.7 135.8 532C136 518.3 136 504.7 137.7 491C139.3 477.3 142.7 463.7 144.7 450C146.7 436.3 147.3 422.7 147 409C146.7 395.3 145.3 381.7 144.2 368C143 354.3 142 340.7 141.5 327C141 313.3 141 299.7 142.2 286C143.3 272.3 145.7 258.7 146.8 245.2C148 231.7 148 218.3 146.7 204.8C145.3 191.3 142.7 177.7 142.8 164C143 150.3 146 136.7 145.5 123C145 109.3 141 95.7 140.8 82C140.7 68.3 144.3 54.7 145.7 41C147 27.3 146 13.7 145.5 6.8L145 0L450 0L450 6.8C450 13.7 450 27.3 450 41C450 54.7 450 68.3 450 82C450 95.7 450 109.3 450 123C450 136.7 450 150.3 450 164C450 177.7 450 191.3 450 204.8C450 218.3 450 231.7 450 245.2C450 258.7 450 272.3 450 286C450 299.7 450 313.3 450 327C450 340.7 450 354.3 450 368C450 381.7 450 395.3 450 409C450 422.7 450 436.3 450 450C450 463.7 450 477.3 450 491C450 504.7 450 518.3 450 532C450 545.7 450 559.3 450 573C450 586.7 450 600.3 450 614C450 627.7 450 641.3 450 654.8C450 668.3 450 681.7 450 695.2C450 708.7 450 722.3 450 736C450 749.7 450 763.3 450 777C450 790.7 450 804.3 450 818C450 831.7 450 845.3 450 859C450 872.7 450 886.3 450 893.2L450 900Z" fill="#1a3a4d"></path><path d="M167 900L167.3 893.2C167.7 886.3 168.3 872.7 169.5 859C170.7 845.3 172.3 831.7 170.7 818C169 804.3 164 790.7 164.2 777C164.3 763.3 169.7 749.7 169.5 736C169.3 722.3 163.7 708.7 163.5 695.2C163.3 681.7 168.7 668.3 169.2 654.8C169.7 641.3 165.3 627.7 165.3 614C165.3 600.3 169.7 586.7 169.5 573C169.3 559.3 164.7 545.7 164.7 532C164.7 518.3 169.3 504.7 169.2 491C169 477.3 164 463.7 164 450C164 436.3 169 422.7 169.3 409C169.7 395.3 165.3 381.7 163.3 368C161.3 354.3 161.7 340.7 162.5 327C163.3 313.3 164.7 299.7 164.3 286C164 272.3 162 258.7 163 245.2C164 231.7 168 218.3 169.2 204.8C170.3 191.3 168.7 177.7 168.2 164C167.7 150.3 168.3 136.7 169.8 123C171.3 109.3 173.7 95.7 172.8 82C172 68.3 168 54.7 167.5 41C167 27.3 170 13.7 171.5 6.8L173 0L450 0L450 6.8C450 13.7 450 27.3 450 41C450 54.7 450 68.3 450 82C450 95.7 450 109.3 450 123C450 136.7 450 150.3 450 164C450 177.7 450 191.3 450 204.8C450 218.3 450 231.7 450 245.2C450 258.7 450 272.3 450 286C450 299.7 450 313.3 450 327C450 340.7 450 354.3 450 368C450 381.7 450 395.3 450 409C450 422.7 450 436.3 450 450C450 463.7 450 477.3 450 491C450 504.7 450 518.3 450 532C450 545.7 450 559.3 450 573C450 586.7 450 600.3 450 614C450 627.7 450 641.3 450 654.8C450 668.3 450 681.7 450 695.2C450 708.7 450 722.3 450 736C450 749.7 450 763.3 450 777C450 790.7 450 804.3 450 818C450 831.7 450 845.3 450 859C450 872.7 450 886.3 450 893.2L450 900Z" fill="#1b6e83"></path><path d="M203 900L203.2 893.2C203.3 886.3 203.7 872.7 203.2 859C202.7 845.3 201.3 831.7 200.5 818C199.7 804.3 199.3 790.7 197.8 777C196.3 763.3 193.7 749.7 192.8 736C192 722.3 193 708.7 194.5 695.2C196 681.7 198 668.3 199.2 654.8C200.3 641.3 200.7 627.7 199 614C197.3 600.3 193.7 586.7 192.5 573C191.3 559.3 192.7 545.7 193.8 532C195 518.3 196 504.7 197.7 491C199.3 477.3 201.7 463.7 201.5 450C201.3 436.3 198.7 422.7 197.7 409C196.7 395.3 197.3 381.7 197 368C196.7 354.3 195.3 340.7 194.2 327C193 313.3 192 299.7 192.8 286C193.7 272.3 196.3 258.7 197.5 245.2C198.7 231.7 198.3 218.3 197.5 204.8C196.7 191.3 195.3 177.7 193.7 164C192 150.3 190 136.7 190.3 123C190.7 109.3 193.3 95.7 195.5 82C197.7 68.3 199.3 54.7 198.2 41C197 27.3 193 13.7 191 6.8L189 0L450 0L450 6.8C450 13.7 450 27.3 450 41C450 54.7 450 68.3 450 82C450 95.7 450 109.3 450 123C450 136.7 450 150.3 450 164C450 177.7 450 191.3 450 204.8C450 218.3 450 231.7 450 245.2C450 258.7 450 272.3 450 286C450 299.7 450 313.3 450 327C450 340.7 450 354.3 450 368C450 381.7 450 395.3 450 409C450 422.7 450 436.3 450 450C450 463.7 450 477.3 450 491C450 504.7 450 518.3 450 532C450 545.7 450 559.3 450 573C450 586.7 450 600.3 450 614C450 627.7 450 641.3 450 654.8C450 668.3 450 681.7 450 695.2C450 708.7 450 722.3 450 736C450 749.7 450 763.3 450 777C450 790.7 450 804.3 450 818C450 831.7 450 845.3 450 859C450 872.7 450 886.3 450 893.2L450 900Z" fill="#1fa7b1"></path><path d="M225 900L225.2 893.2C225.3 886.3 225.7 872.7 225.8 859C226 845.3 226 831.7 225.8 818C225.7 804.3 225.3 790.7 224 777C222.7 763.3 220.3 749.7 219 736C217.7 722.3 217.3 708.7 218.8 695.2C220.3 681.7 223.7 668.3 224.3 654.8C225 641.3 223 627.7 221.5 614C220 600.3 219 586.7 218.7 573C218.3 559.3 218.7 545.7 220.3 532C222 518.3 225 504.7 224.7 491C224.3 477.3 220.7 463.7 218.8 450C217 436.3 217 422.7 218.7 409C220.3 395.3 223.7 381.7 224.3 368C225 354.3 223 340.7 221.3 327C219.7 313.3 218.3 299.7 219.7 286C221 272.3 225 258.7 225.2 245.2C225.3 231.7 221.7 218.3 220.2 204.8C218.7 191.3 219.3 177.7 221 164C222.7 150.3 225.3 136.7 224.8 123C224.3 109.3 220.7 95.7 221.2 82C221.7 68.3 226.3 54.7 228.5 41C230.7 27.3 230.3 13.7 230.2 6.8L230 0L450 0L450 6.8C450 13.7 450 27.3 450 41C450 54.7 450 68.3 450 82C450 95.7 450 109.3 450 123C450 136.7 450 150.3 450 164C450 177.7 450 191.3 450 204.8C450 218.3 450 231.7 450 245.2C450 258.7 450 272.3 450 286C450 299.7 450 313.3 450 327C450 340.7 450 354.3 450 368C450 381.7 450 395.3 450 409C450 422.7 450 436.3 450 450C450 463.7 450 477.3 450 491C450 504.7 450 518.3 450 532C450 545.7 450 559.3 450 573C450 586.7 450 600.3 450 614C450 627.7 450 641.3 450 654.8C450 668.3 450 681.7 450 695.2C450 708.7 450 722.3 450 736C450 749.7 450 763.3 450 777C450 790.7 450 804.3 450 818C450 831.7 450 845.3 450 859C450 872.7 450 886.3 450 893.2L450 900Z" fill="#4ee2d2"></path><path d="M247 900L246.8 893.2C246.7 886.3 246.3 872.7 245.8 859C245.3 845.3 244.7 831.7 244.3 818C244 804.3 244 790.7 245.2 777C246.3 763.3 248.7 749.7 250.8 736C253 722.3 255 708.7 253.7 695.2C252.3 681.7 247.7 668.3 247.3 654.8C247 641.3 251 627.7 253 614C255 600.3 255 586.7 255.3 573C255.7 559.3 256.3 545.7 256.3 532C256.3 518.3 255.7 504.7 255 491C254.3 477.3 253.7 463.7 253.5 450C253.3 436.3 253.7 422.7 254.3 409C255 395.3 256 381.7 255.5 368C255 354.3 253 340.7 251.7 327C250.3 313.3 249.7 299.7 249.7 286C249.7 272.3 250.3 258.7 251 245.2C251.7 231.7 252.3 218.3 251.7 204.8C251 191.3 249 177.7 249.3 164C249.7 150.3 252.3 136.7 252.8 123C253.3 109.3 251.7 95.7 250.3 82C249 68.3 248 54.7 248.3 41C248.7 27.3 250.3 13.7 251.2 6.8L252 0L450 0L450 6.8C450 13.7 450 27.3 450 41C450 54.7 450 68.3 450 82C450 95.7 450 109.3 450 123C450 136.7 450 150.3 450 164C450 177.7 450 191.3 450 204.8C450 218.3 450 231.7 450 245.2C450 258.7 450 272.3 450 286C450 299.7 450 313.3 450 327C450 340.7 450 354.3 450 368C450 381.7 450 395.3 450 409C450 422.7 450 436.3 450 450C450 463.7 450 477.3 450 491C450 504.7 450 518.3 450 532C450 545.7 450 559.3 450 573C450 586.7 450 600.3 450 614C450 627.7 450 641.3 450 654.8C450 668.3 450 681.7 450 695.2C450 708.7 450 722.3 450 736C450 749.7 450 763.3 450 777C450 790.7 450 804.3 450 818C450 831.7 450 845.3 450 859C450 872.7 450 886.3 450 893.2L450 900Z" fill="#69fadb"></path><path d="M274 900L274.2 893.2C274.3 886.3 274.7 872.7 276.3 859C278 845.3 281 831.7 282.5 818C284 804.3 284 790.7 282.5 777C281 763.3 278 749.7 276.8 736C275.7 722.3 276.3 708.7 275.8 695.2C275.3 681.7 273.7 668.3 274 654.8C274.3 641.3 276.7 627.7 278.5 614C280.3 600.3 281.7 586.7 281.2 573C280.7 559.3 278.3 545.7 277.5 532C276.7 518.3 277.3 504.7 277.8 491C278.3 477.3 278.7 463.7 279 450C279.3 436.3 279.7 422.7 280.5 409C281.3 395.3 282.7 381.7 282.2 368C281.7 354.3 279.3 340.7 278 327C276.7 313.3 276.3 299.7 276.5 286C276.7 272.3 277.3 258.7 276.5 245.2C275.7 231.7 273.3 218.3 273.5 204.8C273.7 191.3 276.3 177.7 277.3 164C278.3 150.3 277.7 136.7 276.3 123C275 109.3 273 95.7 272.3 82C271.7 68.3 272.3 54.7 274.3 41C276.3 27.3 279.7 13.7 281.3 6.8L283 0L450 0L450 6.8C450 13.7 450 27.3 450 41C450 54.7 450 68.3 450 82C450 95.7 450 109.3 450 123C450 136.7 450 150.3 450 164C450 177.7 450 191.3 450 204.8C450 218.3 450 231.7 450 245.2C450 258.7 450 272.3 450 286C450 299.7 450 313.3 450 327C450 340.7 450 354.3 450 368C450 381.7 450 395.3 450 409C450 422.7 450 436.3 450 450C450 463.7 450 477.3 450 491C450 504.7 450 518.3 450 532C450 545.7 450 559.3 450 573C450 586.7 450 600.3 450 614C450 627.7 450 641.3 450 654.8C450 668.3 450 681.7 450 695.2C450 708.7 450 722.3 450 736C450 749.7 450 763.3 450 777C450 790.7 450 804.3 450 818C450 831.7 450 845.3 450 859C450 872.7 450 886.3 450 893.2L450 900Z" fill="#69fadb"></path><path d="M301 900L302 893.2C303 886.3 305 872.7 305.5 859C306 845.3 305 831.7 303.8 818C302.7 804.3 301.3 790.7 301.7 777C302 763.3 304 749.7 305.2 736C306.3 722.3 306.7 708.7 306.7 695.2C306.7 681.7 306.3 668.3 305.3 654.8C304.3 641.3 302.7 627.7 302.8 614C303 600.3 305 586.7 306.5 573C308 559.3 309 545.7 309.7 532C310.3 518.3 310.7 504.7 309.3 491C308 477.3 305 463.7 305.2 450C305.3 436.3 308.7 422.7 309.5 409C310.3 395.3 308.7 381.7 308.3 368C308 354.3 309 340.7 307.8 327C306.7 313.3 303.3 299.7 302.8 286C302.3 272.3 304.7 258.7 305.2 245.2C305.7 231.7 304.3 218.3 304 204.8C303.7 191.3 304.3 177.7 304.2 164C304 150.3 303 136.7 303.7 123C304.3 109.3 306.7 95.7 306.7 82C306.7 68.3 304.3 54.7 304.5 41C304.7 27.3 307.3 13.7 308.7 6.8L310 0L450 0L450 6.8C450 13.7 450 27.3 450 41C450 54.7 450 68.3 450 82C450 95.7 450 109.3 450 123C450 136.7 450 150.3 450 164C450 177.7 450 191.3 450 204.8C450 218.3 450 231.7 450 245.2C450 258.7 450 272.3 450 286C450 299.7 450 313.3 450 327C450 340.7 450 354.3 450 368C450 381.7 450 395.3 450 409C450 422.7 450 436.3 450 450C450 463.7 450 477.3 450 491C450 504.7 450 518.3 450 532C450 545.7 450 559.3 450 573C450 586.7 450 600.3 450 614C450 627.7 450 641.3 450 654.8C450 668.3 450 681.7 450 695.2C450 708.7 450 722.3 450 736C450 749.7 450 763.3 450 777C450 790.7 450 804.3 450 818C450 831.7 450 845.3 450 859C450 872.7 450 886.3 450 893.2L450 900Z" fill="#4ee2d2"></path><path d="M328 900L328.5 893.2C329 886.3 330 872.7 331.5 859C333 845.3 335 831.7 334.5 818C334 804.3 331 790.7 330.2 777C329.3 763.3 330.7 749.7 331.7 736C332.7 722.3 333.3 708.7 332.7 695.2C332 681.7 330 668.3 329.2 654.8C328.3 641.3 328.7 627.7 329.3 614C330 600.3 331 586.7 331 573C331 559.3 330 545.7 329.8 532C329.7 518.3 330.3 504.7 331.5 491C332.7 477.3 334.3 463.7 334.7 450C335 436.3 334 422.7 333 409C332 395.3 331 381.7 331.3 368C331.7 354.3 333.3 340.7 334.7 327C336 313.3 337 299.7 337.2 286C337.3 272.3 336.7 258.7 335.3 245.2C334 231.7 332 218.3 331.8 204.8C331.7 191.3 333.3 177.7 333.5 164C333.7 150.3 332.3 136.7 332 123C331.7 109.3 332.3 95.7 333.3 82C334.3 68.3 335.7 54.7 336.7 41C337.7 27.3 338.3 13.7 338.7 6.8L339 0L450 0L450 6.8C450 13.7 450 27.3 450 41C450 54.7 450 68.3 450 82C450 95.7 450 109.3 450 123C450 136.7 450 150.3 450 164C450 177.7 450 191.3 450 204.8C450 218.3 450 231.7 450 245.2C450 258.7 450 272.3 450 286C450 299.7 450 313.3 450 327C450 340.7 450 354.3 450 368C450 381.7 450 395.3 450 409C450 422.7 450 436.3 450 450C450 463.7 450 477.3 450 491C450 504.7 450 518.3 450 532C450 545.7 450 559.3 450 573C450 586.7 450 600.3 450 614C450 627.7 450 641.3 450 654.8C450 668.3 450 681.7 450 695.2C450 708.7 450 722.3 450 736C450 749.7 450 763.3 450 777C450 790.7 450 804.3 450 818C450 831.7 450 845.3 450 859C450 872.7 450 886.3 450 893.2L450 900Z" fill="#1fa7b1"></path><path d="M357 900L357.2 893.2C357.3 886.3 357.7 872.7 359 859C360.3 845.3 362.7 831.7 363.8 818C365 804.3 365 790.7 364.3 777C363.7 763.3 362.3 749.7 362.2 736C362 722.3 363 708.7 362.8 695.2C362.7 681.7 361.3 668.3 360.2 654.8C359 641.3 358 627.7 358.8 614C359.7 600.3 362.3 586.7 363.3 573C364.3 559.3 363.7 545.7 362.5 532C361.3 518.3 359.7 504.7 358.7 491C357.7 477.3 357.3 463.7 358 450C358.7 436.3 360.3 422.7 361.3 409C362.3 395.3 362.7 381.7 363.3 368C364 354.3 365 340.7 365.3 327C365.7 313.3 365.3 299.7 365.2 286C365 272.3 365 258.7 364 245.2C363 231.7 361 218.3 359.7 204.8C358.3 191.3 357.7 177.7 357.5 164C357.3 150.3 357.7 136.7 357.5 123C357.3 109.3 356.7 95.7 356.7 82C356.7 68.3 357.3 54.7 358.7 41C360 27.3 362 13.7 363 6.8L364 0L450 0L450 6.8C450 13.7 450 27.3 450 41C450 54.7 450 68.3 450 82C450 95.7 450 109.3 450 123C450 136.7 450 150.3 450 164C450 177.7 450 191.3 450 204.8C450 218.3 450 231.7 450 245.2C450 258.7 450 272.3 450 286C450 299.7 450 313.3 450 327C450 340.7 450 354.3 450 368C450 381.7 450 395.3 450 409C450 422.7 450 436.3 450 450C450 463.7 450 477.3 450 491C450 504.7 450 518.3 450 532C450 545.7 450 559.3 450 573C450 586.7 450 600.3 450 614C450 627.7 450 641.3 450 654.8C450 668.3 450 681.7 450 695.2C450 708.7 450 722.3 450 736C450 749.7 450 763.3 450 777C450 790.7 450 804.3 450 818C450 831.7 450 845.3 450 859C450 872.7 450 886.3 450 893.2L450 900Z" fill="#1b6e83"></path><path d="M389 900L388.3 893.2C387.7 886.3 386.3 872.7 386.5 859C386.7 845.3 388.3 831.7 388.8 818C389.3 804.3 388.7 790.7 389 777C389.3 763.3 390.7 749.7 390.2 736C389.7 722.3 387.3 708.7 387 695.2C386.7 681.7 388.3 668.3 389.2 654.8C390 641.3 390 627.7 390 614C390 600.3 390 586.7 389.3 573C388.7 559.3 387.3 545.7 386.8 532C386.3 518.3 386.7 504.7 387.2 491C387.7 477.3 388.3 463.7 388.8 450C389.3 436.3 389.7 422.7 389.8 409C390 395.3 390 381.7 389.3 368C388.7 354.3 387.3 340.7 387.8 327C388.3 313.3 390.7 299.7 391 286C391.3 272.3 389.7 258.7 389 245.2C388.3 231.7 388.7 218.3 388.2 204.8C387.7 191.3 386.3 177.7 386.2 164C386 150.3 387 136.7 387.8 123C388.7 109.3 389.3 95.7 389 82C388.7 68.3 387.3 54.7 387 41C386.7 27.3 387.3 13.7 387.7 6.8L388 0L450 0L450 6.8C450 13.7 450 27.3 450 41C450 54.7 450 68.3 450 82C450 95.7 450 109.3 450 123C450 136.7 450 150.3 450 164C450 177.7 450 191.3 450 204.8C450 218.3 450 231.7 450 245.2C450 258.7 450 272.3 450 286C450 299.7 450 313.3 450 327C450 340.7 450 354.3 450 368C450 381.7 450 395.3 450 409C450 422.7 450 436.3 450 450C450 463.7 450 477.3 450 491C450 504.7 450 518.3 450 532C450 545.7 450 559.3 450 573C450 586.7 450 600.3 450 614C450 627.7 450 641.3 450 654.8C450 668.3 450 681.7 450 695.2C450 708.7 450 722.3 450 736C450 749.7 450 763.3 450 777C450 790.7 450 804.3 450 818C450 831.7 450 845.3 450 859C450 872.7 450 886.3 450 893.2L450 900Z" fill="#1a3a4d"></path><path d="M419 900L418.2 893.2C417.3 886.3 415.7 872.7 415.3 859C415 845.3 416 831.7 415.8 818C415.7 804.3 414.3 790.7 414.3 777C414.3 763.3 415.7 749.7 416.3 736C417 722.3 417 708.7 417.3 695.2C417.7 681.7 418.3 668.3 417.8 654.8C417.3 641.3 415.7 627.7 415 614C414.3 600.3 414.7 586.7 415.3 573C416 559.3 417 545.7 416.7 532C416.3 518.3 414.7 504.7 414.5 491C414.3 477.3 415.7 463.7 416.7 450C417.7 436.3 418.3 422.7 418.2 409C418 395.3 417 381.7 416.2 368C415.3 354.3 414.7 340.7 414.2 327C413.7 313.3 413.3 299.7 414 286C414.7 272.3 416.3 258.7 416.8 245.2C417.3 231.7 416.7 218.3 416.2 204.8C415.7 191.3 415.3 177.7 416 164C416.7 150.3 418.3 136.7 418.2 123C418 109.3 416 95.7 415.8 82C415.7 68.3 417.3 54.7 417.7 41C418 27.3 417 13.7 416.5 6.8L416 0L450 0L450 6.8C450 13.7 450 27.3 450 41C450 54.7 450 68.3 450 82C450 95.7 450 109.3 450 123C450 136.7 450 150.3 450 164C450 177.7 450 191.3 450 204.8C450 218.3 450 231.7 450 245.2C450 258.7 450 272.3 450 286C450 299.7 450 313.3 450 327C450 340.7 450 354.3 450 368C450 381.7 450 395.3 450 409C450 422.7 450 436.3 450 450C450 463.7 450 477.3 450 491C450 504.7 450 518.3 450 532C450 545.7 450 559.3 450 573C450 586.7 450 600.3 450 614C450 627.7 450 641.3 450 654.8C450 668.3 450 681.7 450 695.2C450 708.7 450 722.3 450 736C450 749.7 450 763.3 450 777C450 790.7 450 804.3 450 818C450 831.7 450 845.3 450 859C450 872.7 450 886.3 450 893.2L450 900Z" fill="#050c17"></path></svg>