<svg id="visual" viewBox="0 0 450 900" width="450" height="900" xmlns="http://www.w3.org/2000/svg" xmlns:xlink="http://www.w3.org/1999/xlink" version="1.1"><path d="M431 900L413 859L445 818L413 777L436 736L413 695L445 655L449 614L418 573L449 532L431 491L418 450L436 409L449 368L449 327L422 286L431 245L445 205L418 164L445 123L440 82L431 41L413 0L450 0L450 41L450 82L450 123L450 164L450 205L450 245L450 286L450 327L450 368L450 409L450 450L450 491L450 532L450 573L450 614L450 655L450 695L450 736L450 777L450 818L450 859L450 900Z" fill="#026b4c"></path><path d="M413 900L413 859L350 818L413 777L377 736L337 695L364 655L314 614L359 573L400 532L260 491L274 450L355 409L427 368L368 327L368 286L359 245L337 205L409 164L332 123L319 82L310 41L368 0L414 0L432 41L441 82L446 123L419 164L446 205L432 245L423 286L450 327L450 368L437 409L419 450L432 491L450 532L419 573L450 614L446 655L414 695L437 736L414 777L446 818L414 859L432 900Z" fill="#00695d"></path><path d="M296 900L260 859L238 818L314 777L283 736L274 695L359 655L283 614L233 573L260 532L256 491L233 450L310 409L310 368L323 327L310 286L341 245L305 205L296 164L256 123L242 82L220 41L278 0L369 0L311 41L320 82L333 123L410 164L338 205L360 245L369 286L369 327L428 368L356 409L275 450L261 491L401 532L360 573L315 614L365 655L338 695L378 736L414 777L351 818L414 859L414 900Z" fill="#00666e"></path><path d="M296 900L215 859L201 818L278 777L260 736L229 695L314 655L251 614L215 573L233 532L251 491L229 450L274 409L310 368L274 327L283 286L287 245L278 205L265 164L256 123L229 82L170 41L251 0L279 0L221 41L243 82L257 123L297 164L306 205L342 245L311 286L324 327L311 368L311 409L234 450L257 491L261 532L234 573L284 614L360 655L275 695L284 736L315 777L239 818L261 859L297 900Z" fill="#00617c"></path><path d="M287 900L206 859L175 818L247 777L247 736L224 695L287 655L211 614L201 573L229 532L224 491L229 450L256 409L269 368L274 327L260 286L269 245L265 205L229 164L224 123L197 82L139 41L233 0L252 0L171 41L230 82L257 123L266 164L279 205L288 245L284 286L275 327L311 368L275 409L230 450L252 491L234 532L216 573L252 614L315 655L230 695L261 736L279 777L202 818L216 859L297 900Z" fill="#005b86"></path><path d="M269 900L179 859L166 818L188 777L206 736L161 695L224 655L193 614L166 573L170 532L206 491L206 450L215 409L260 368L247 327L233 286L220 245L233 205L220 164L175 123L175 82L93 41L179 0L234 0L140 41L198 82L225 123L230 164L266 205L270 245L261 286L275 327L270 368L257 409L230 450L225 491L230 532L202 573L212 614L288 655L225 695L248 736L248 777L176 818L207 859L288 900Z" fill="#005489"></path><path d="M265 900L175 859L161 818L184 777L175 736L161 695L179 655L193 614L130 573L134 532L193 491L175 450L179 409L242 368L238 327L201 286L170 245L188 205L179 164L152 123L161 82L71 41L161 0L180 0L94 41L176 82L176 123L221 164L234 205L221 245L234 286L248 327L261 368L216 409L207 450L207 491L171 532L167 573L194 614L225 655L162 695L207 736L189 777L167 818L180 859L270 900Z" fill="#004a89"></path><path d="M193 900L139 859L161 818L152 777L152 736L121 695L125 655L121 614L121 573L121 532L161 491L121 450L121 409L175 368L157 327L161 286L134 245L116 205L147 164L116 123L102 82L58 41L125 0L162 0L72 41L162 82L153 123L180 164L189 205L171 245L202 286L239 327L243 368L180 409L176 450L194 491L135 532L131 573L194 614L180 655L162 695L176 736L185 777L162 818L176 859L266 900Z" fill="#00418b"></path><path d="M175 900L121 859L139 818L125 777L143 736L80 695L107 655L67 614L89 573L67 532L143 491L116 450L84 409L152 368L143 327L139 286L93 245L107 205L98 164L62 123L76 82L35 41L84 0L126 0L59 41L103 82L117 123L148 164L117 205L135 245L162 286L158 327L176 368L122 409L122 450L162 491L122 532L122 573L122 614L126 655L122 695L153 736L153 777L162 818L140 859L194 900Z" fill="#00368c"></path><path d="M67 900L53 859L39 818L53 777L26 736L22 695L35 655L48 614L62 573L30 532L71 491L71 450L26 409L62 368L53 327L58 286L13 245L26 205L17 164L39 123L53 82L30 41L35 0L85 0L36 41L77 82L63 123L99 164L108 205L94 245L140 286L144 327L153 368L85 409L117 450L144 491L68 532L90 573L68 614L108 655L81 695L144 736L126 777L140 818L122 859L176 900Z" fill="#002b8b"></path><path d="M35 900L35 859L4 818L22 777L17 736L22 695L35 655L22 614L26 573L17 532L30 491L30 450L17 409L35 368L35 327L35 286L4 245L0 205L8 164L26 123L22 82L0 41L26 0L36 0L31 41L54 82L40 123L18 164L27 205L14 245L59 286L54 327L63 368L27 409L72 450L72 491L31 532L63 573L49 614L36 655L23 695L27 736L54 777L40 818L54 859L68 900Z" fill="#001d87"></path><path d="M0 900L0 859L0 818L0 777L0 736L0 695L0 655L0 614L0 573L0 532L0 491L0 450L0 409L0 368L0 327L0 286L0 245L0 205L0 164L0 123L0 82L0 41L0 0L27 0L0 41L23 82L27 123L9 164L0 205L5 245L36 286L36 327L36 368L18 409L31 450L31 491L18 532L27 573L23 614L36 655L23 695L18 736L23 777L5 818L36 859L36 900Z" fill="#030682"></path></svg>